<?xml version="1.0" standalone="no"?>
<!DOCTYPE svg PUBLIC "-//W3C//DTD SVG 20010904//EN"
 "http://www.w3.org/TR/2001/REC-SVG-20010904/DTD/svg10.dtd">
<svg version="1.0" xmlns="http://www.w3.org/2000/svg"
 width="450.000000pt" height="450.000000pt" viewBox="0 0 450.000000 450.000000"
 preserveAspectRatio="xMidYMid meet">
<metadata>
Created by potrace 1.14, written by Peter Selinger 2001-2017
</metadata>
<g transform="translate(0.000000,450.000000) scale(0.100000,-0.100000)"
fill="#000000" stroke="none">
<path d="M2948 3415 c-2 -2 -21 -5 -43 -8 -248 -34 -497 -171 -740 -406 -83
-80 -185 -190 -185 -197 0 -3 -10 -15 -22 -28 -35 -36 -157 -197 -229 -301
-19 -27 -37 -51 -41 -53 -5 -2 -8 -8 -8 -13 0 -5 -15 -31 -33 -57 -51 -73
-216 -337 -267 -427 -29 -50 -169 -283 -238 -395 -35 -58 -68 -106 -73 -108
-5 -2 -9 -8 -9 -13 0 -17 -154 -230 -172 -237 -4 -2 -8 -7 -8 -12 0 -10 39 -1
65 16 11 7 25 14 30 15 6 1 20 5 33 10 13 5 26 9 29 9 3 0 19 6 36 14 18 8 66
29 107 46 192 81 520 252 650 340 30 20 60 39 66 41 29 11 258 183 389 292 67
57 182 166 269 256 97 100 104 108 160 176 27 33 56 67 65 75 9 9 21 23 26 32
6 8 37 51 69 94 32 43 92 125 131 183 152 221 365 595 348 611 -18 17 -183 43
-290 45 -62 1 -114 1 -115 0z"/>
<path d="M3392 3250 c-34 -56 -62 -106 -62 -111 0 -5 -4 -9 -9 -9 -5 0 -11 -8
-15 -17 -3 -10 -15 -31 -26 -48 -10 -16 -27 -43 -36 -59 -9 -16 -20 -34 -26
-40 -18 -21 -78 -118 -78 -126 0 -5 -4 -10 -8 -12 -4 -1 -22 -24 -40 -50 -18
-27 -46 -69 -64 -95 -18 -27 -35 -50 -38 -53 -3 -3 -30 -39 -60 -80 -151 -206
-443 -524 -605 -658 -35 -30 -75 -64 -88 -75 -12 -12 -44 -38 -70 -57 -26 -19
-62 -47 -80 -62 -18 -15 -35 -28 -39 -28 -4 0 -13 -6 -20 -13 -22 -21 -207
-141 -313 -202 -184 -106 -352 -187 -575 -276 -151 -61 -159 -66 -69 -48 30 6
63 12 74 14 20 4 187 30 260 40 22 4 51 8 65 11 14 2 54 9 90 14 36 6 76 13
90 15 27 4 175 31 225 40 132 25 275 56 370 80 33 9 78 20 100 26 48 12 222
66 250 78 11 4 58 23 105 41 337 129 605 320 755 540 68 99 137 264 150 360 4
24 9 48 11 52 3 4 7 63 8 130 6 196 -23 366 -99 595 -71 210 -61 204 -133 83z"/>
</g>
</svg>
